# Blender 4.4.3
# www.blender.org
mtllib Platformer.mtl
o Platformer
v -0.922495 1.786659 -0.068975
v -0.914535 1.716122 -0.090692
v -0.983541 1.716756 -0.118045
v -0.991501 1.787293 -0.096328
v -0.981656 1.734405 0.079067
v -0.973696 1.663867 0.057350
v -1.042702 1.664501 0.029997
v -1.050663 1.735039 0.051714
v 1.024365 1.769897 -0.058503
v 1.020829 1.703807 -0.081686
v 0.955025 1.698993 -0.057926
v 0.958561 1.765084 -0.034744
v 1.078569 1.718026 0.081109
v 1.075033 1.651936 0.057926
v 1.009229 1.647122 0.081686
v 1.012765 1.713213 0.104869
v 1.268441 1.849578 -0.380941
v 1.268441 1.733795 -0.380941
v 0.921315 1.733795 -0.341473
v 0.921315 1.849578 -0.341473
v 1.299421 1.849578 -0.108463
v 1.299421 1.733795 -0.108463
v 0.952295 1.733795 -0.068996
v 0.952295 1.849578 -0.068996
v -0.783566 1.851196 -0.204346
v -0.680547 1.764807 -0.205000
v -0.783566 1.682926 -0.204346
v -0.886584 1.764807 -0.203692
v -0.784220 1.764807 -0.307365
v -0.782912 1.764807 -0.101327
v -0.680547 1.851502 -0.205000
v -0.680547 1.678112 -0.205000
v -0.886584 1.832039 -0.203692
v -0.886584 1.697575 -0.203692
v -0.784077 1.841718 -0.295320
v -0.681201 1.764807 -0.308019
v -0.784220 1.682926 -0.307365
v -0.887239 1.764807 -0.306711
v -0.679893 1.764807 -0.101981
v -0.783247 1.842038 -0.111334
v -0.885930 1.764807 -0.100673
v -0.782912 1.682926 -0.101327
v -0.681058 1.842025 -0.295974
v -0.681201 1.678112 -0.308019
v -0.887239 1.697575 -0.306711
v -0.887096 1.822562 -0.294666
v -0.680228 1.842344 -0.111988
v -0.679893 1.678112 -0.101981
v -0.885930 1.697575 -0.100673
v -0.886266 1.822881 -0.110680
v 0.893452 1.822881 -0.293679
v 0.893180 1.697575 -0.303688
v 0.687138 1.678112 -0.303688
v 0.687410 1.842344 -0.293679
v 0.893113 1.822562 -0.109691
v 0.893180 1.697575 -0.097646
v 0.687138 1.678112 -0.097646
v 0.687072 1.842025 -0.109691
v 0.790159 1.682926 -0.303688
v 0.893180 1.764807 -0.303688
v 0.790431 1.842038 -0.293679
v 0.687138 1.764807 -0.303688
v 0.893180 1.764807 -0.097646
v 0.790159 1.682926 -0.097646
v 0.687138 1.764807 -0.097646
v 0.790093 1.841718 -0.109691
v 0.893180 1.697575 -0.200667
v 0.893180 1.832039 -0.200667
v 0.687138 1.678112 -0.200667
v 0.687138 1.851502 -0.200667
v 0.790159 1.764807 -0.303688
v 0.790159 1.764807 -0.097646
v 0.893180 1.764807 -0.200667
v 0.790159 1.682926 -0.200667
v 0.687138 1.764807 -0.200667
v 0.790159 1.851196 -0.200667
v -0.476343 1.844498 -0.115723
v -0.476343 1.675948 -0.096285
v -0.476343 1.850977 -0.291019
v -0.476343 1.675948 -0.305274
v -0.352465 1.855664 -0.115723
v -0.352465 1.664782 -0.096285
v -0.352465 1.664782 -0.305274
v -0.352465 1.862143 -0.291019
v -0.600221 1.831204 -0.115723
v -0.600221 1.689242 -0.096285
v -0.600221 1.689242 -0.305274
v -0.600221 1.837684 -0.291019
v -0.476343 1.866069 -0.201824
v -0.476343 1.675948 -0.201824
v -0.352465 1.877236 -0.201824
v -0.352465 1.664782 -0.201824
v -0.600221 1.852776 -0.201824
v -0.600221 1.689242 -0.201824
v 0.343977 1.862774 -0.291019
v 0.343977 1.664151 -0.305274
v 0.343977 1.664151 -0.096285
v 0.343977 1.856294 -0.115723
v 0.591734 1.843334 -0.291019
v 0.591734 1.683591 -0.305274
v 0.591734 1.683591 -0.096285
v 0.591734 1.836854 -0.115723
v 0.467855 1.675948 -0.305274
v 0.467855 1.850977 -0.291019
v 0.467855 1.675948 -0.096285
v 0.467855 1.844498 -0.115723
v 0.343977 1.664151 -0.208094
v 0.343977 1.877866 -0.208094
v 0.591734 1.683591 -0.208094
v 0.591734 1.858426 -0.208094
v 0.467855 1.675948 -0.208094
v 0.467855 1.866069 -0.208094
v -0.329412 1.675217 -0.313780
v -0.329412 1.293256 -0.345448
v -0.329412 1.334958 0.215506
v -0.329412 1.716918 0.078191
v 0.324881 1.676544 -0.316997
v 0.324881 1.288973 -0.349130
v 0.324881 1.331287 0.220064
v 0.324881 1.718858 0.080732
v -0.329412 1.314107 -0.064971
v -0.329412 1.475362 -0.322391
v -0.329412 1.696067 -0.117794
v -0.344982 1.555966 0.177979
v 0.324881 1.473753 -0.325734
v 0.324881 1.310130 -0.064533
v 0.344237 1.555541 0.181986
v 0.324881 1.697701 -0.118132
v -0.011415 1.243148 -0.388520
v -0.011415 1.690742 -0.351410
v -0.011415 1.292015 0.268825
v -0.011415 1.739610 0.107916
v -0.344982 1.535115 -0.043029
v 0.344237 1.534384 -0.042269
v -0.011415 1.456545 -0.361501
v -0.011415 1.267582 -0.059847
v -0.011415 1.551000 0.224850
v -0.011415 1.845331 -0.140642
v -0.011415 1.809638 0.028346
v -0.011415 1.881023 -0.309630
v 0.324881 1.810402 -0.134493
v -0.329412 1.807137 -0.133918
v 0.324881 1.779496 0.011833
v 0.324881 1.841308 -0.280820
v -0.329412 1.776678 0.010290
v -0.329412 1.837596 -0.278127
v -0.246402 1.243148 -0.388520
v -0.246402 1.690742 -0.351410
v -0.246402 1.292015 0.268825
v -0.246402 1.739610 0.107916
v -0.246402 1.456545 -0.361501
v -0.246402 1.267582 -0.059847
v -0.259904 1.551000 0.224850
v -0.246402 1.809638 0.028346
v -0.246402 1.881023 -0.309630
v -0.246402 1.845331 -0.140642
v 0.285765 1.243148 -0.388520
v 0.285765 1.690742 -0.351410
v 0.285765 1.292015 0.268825
v 0.285765 1.739610 0.107916
v 0.285765 1.456545 -0.361501
v 0.285765 1.267581 -0.059847
v 0.305548 1.551000 0.224850
v 0.285765 1.809638 0.028346
v 0.285765 1.881023 -0.309630
v 0.285765 1.845331 -0.140642
v -0.088612 1.035326 -0.252736
v -0.095178 0.861426 -0.192379
v -0.091355 0.887681 0.133067
v -0.084789 1.061581 0.131136
v -0.311345 1.197708 -0.252736
v -0.386995 0.903911 -0.192379
v -0.383172 0.930166 0.133067
v -0.325768 1.223964 0.131136
v 0.061702 1.035326 -0.252736
v 0.116500 0.861426 -0.192379
v 0.112677 0.887681 0.133067
v 0.057880 1.061581 0.131136
v 0.350913 1.197708 -0.252736
v 0.408317 0.903911 -0.192379
v 0.404494 0.930166 0.133067
v 0.347090 1.223964 0.131136
v -0.112579 0.841843 -0.198642
v -0.141251 0.665266 -0.226618
v -0.141251 0.647240 0.075591
v -0.112579 0.823817 0.103567
v -0.383955 0.841843 -0.198642
v -0.412626 0.665266 -0.226618
v -0.412626 0.647240 0.075591
v -0.383955 0.823817 0.103567
v 0.133901 0.841843 -0.198642
v 0.162573 0.665266 -0.226618
v 0.162573 0.647240 0.075591
v 0.133901 0.823817 0.103567
v 0.405277 0.841843 -0.198642
v 0.433948 0.665266 -0.226618
v 0.433948 0.647240 0.075591
v 0.405277 0.823817 0.103567
v -0.433831 0.467676 0.080938
v -0.433831 0.467278 0.250417
v -0.135685 0.467278 0.250417
v -0.135685 0.467676 0.080938
v -0.433831 0.523389 0.080938
v -0.433831 0.513453 0.250417
v -0.135685 0.513453 0.250417
v -0.135685 0.523389 0.080938
v -0.135685 0.467676 -0.160348
v -0.135685 0.523389 -0.160348
v -0.433831 0.467676 -0.160348
v -0.433831 0.523389 -0.160348
v -0.405855 0.386731 0.305908
v -0.163661 0.386731 0.305908
v -0.405855 0.388338 0.087805
v -0.163661 0.388338 0.087805
v -0.405855 0.573086 0.305908
v -0.163660 0.573086 0.305908
v -0.405855 0.613183 0.087805
v -0.163661 0.613183 0.087805
v -0.163661 0.613183 -0.222707
v -0.405855 0.613183 -0.222707
v -0.163661 0.388338 -0.222707
v -0.405855 0.388338 -0.222707
v 0.455153 0.467676 0.080938
v 0.455153 0.467278 0.250417
v 0.157007 0.467278 0.250417
v 0.157007 0.467676 0.080938
v 0.455153 0.523389 0.080938
v 0.455153 0.513453 0.250417
v 0.157007 0.513453 0.250417
v 0.157007 0.523389 0.080938
v 0.157007 0.467676 -0.160348
v 0.157007 0.523389 -0.160348
v 0.455153 0.467676 -0.160348
v 0.455153 0.523389 -0.160348
v 0.427177 0.386731 0.305908
v 0.184983 0.386731 0.305908
v 0.427177 0.388338 0.087805
v 0.184983 0.388338 0.087805
v 0.427177 0.573086 0.305908
v 0.184982 0.573086 0.305908
v 0.427177 0.613183 0.087805
v 0.184983 0.613183 0.087805
v 0.184983 0.613183 -0.222707
v 0.427177 0.613183 -0.222707
v 0.184983 0.388338 -0.222707
v 0.427177 0.388338 -0.222707
v 0.322321 1.979179 -0.425373
v 0.322321 1.979179 0.227622
v -0.330675 1.979179 0.227622
v -0.330674 1.979179 -0.425374
v 0.322321 2.593077 -0.425373
v 0.322320 2.593077 0.227622
v -0.330675 2.593077 0.227622
v -0.330674 2.593077 -0.425373
v -0.250454 2.688811 -0.310516
v -0.250454 2.688811 0.112764
v 0.242100 2.688811 0.112764
v 0.242100 2.688811 -0.310515
v 0.110522 2.734398 -0.117567
v 0.110522 2.734398 -0.080185
v -0.118876 2.734398 -0.080185
v -0.118876 2.734398 -0.117567
v -1.263218 1.844298 -0.054741
v -1.263218 1.739075 -0.054741
v -0.919234 1.739075 -0.115811
v -0.919234 1.844298 -0.115811
v -1.311155 1.844298 -0.324751
v -1.311155 1.739075 -0.324751
v -0.967171 1.739075 -0.385821
v -0.967171 1.844298 -0.385821
vn -0.1072 0.9502 0.2925
vn 0.9296 -0.0085 0.3685
vn 0.1072 -0.9502 -0.2926
vn -0.9296 0.0085 -0.3685
vn 0.3526 0.3115 -0.8824
vn -0.3526 -0.3115 0.8824
vn -0.3420 0.3273 -0.8809
vn 0.3420 -0.3273 0.8809
vn 0.9383 0.0686 -0.3388
vn -0.0504 -0.9424 -0.3306
vn -0.9383 -0.0686 0.3388
vn 0.0504 0.9424 0.3306
vn -0.1130 -0.0000 -0.9936
vn 0.1130 -0.0000 0.9936
vn 0.9936 -0.0000 -0.1130
vn -0.0000 -1.0000 -0.0000
vn -0.9936 -0.0000 0.1130
vn -0.0000 1.0000 -0.0000
vn -0.1814 0.9786 0.0970
vn -0.1825 0.9780 -0.1009
vn -0.0023 0.9952 0.0980
vn -0.0036 0.9946 -0.1036
vn 1.0000 0.0008 -0.0056
vn 1.0000 0.0003 -0.0059
vn 1.0000 0.0007 -0.0054
vn 1.0000 0.0017 -0.0049
vn 1.0000 -0.0002 -0.0062
vn 1.0000 -0.0004 -0.0060
vn 1.0000 -0.0000 -0.0063
vn -0.0467 -0.9989 0.0003
vn -0.1408 -0.9900 0.0009
vn -1.0000 -0.0011 0.0056
vn -1.0000 -0.0004 0.0059
vn -1.0000 -0.0000 0.0064
vn -1.0000 -0.0000 0.0063
vn -1.0000 0.0003 0.0062
vn -1.0000 -0.0023 0.0049
vn -1.0000 -0.0009 0.0054
vn -1.0000 0.0006 0.0060
vn -0.0063 -0.0000 -1.0000
vn -0.0226 0.1761 -0.9841
vn -0.0065 0.1544 -0.9880
vn 0.0063 -0.0000 1.0000
vn -0.0073 0.1463 0.9892
vn 0.0061 0.1283 0.9917
vn 0.0002 0.1283 -0.9917
vn -0.0000 -0.0000 -1.0000
vn 0.0136 0.1463 -0.9891
vn 0.0002 0.1544 0.9880
vn 0.0164 0.1761 0.9842
vn -0.0000 -0.0000 1.0000
vn 1.0000 -0.0009 0.0009
vn 1.0000 0.0006 0.0004
vn 1.0000 0.0003 0.0002
vn 1.0000 -0.0004 0.0005
vn 1.0000 -0.0023 0.0015
vn 1.0000 -0.0011 0.0007
vn 1.0000 -0.0000 -0.0000
vn 0.1408 -0.9900 -0.0000
vn 0.0467 -0.9989 -0.0000
vn -1.0000 -0.0000 -0.0000
vn -1.0000 -0.0002 -0.0002
vn -1.0000 0.0003 -0.0005
vn -1.0000 0.0008 -0.0007
vn -1.0000 -0.0004 -0.0004
vn -1.0000 0.0007 -0.0009
vn -1.0000 0.0017 -0.0015
vn 0.0030 0.9946 0.1036
vn 0.0030 0.9952 -0.0980
vn 0.1819 0.9780 0.1020
vn 0.1820 0.9786 -0.0958
vn -0.0000 0.1075 0.9942
vn -0.0000 0.1242 0.9923
vn -0.0000 0.0874 -0.9962
vn -0.0000 0.0763 -0.9971
vn -0.0000 0.0878 -0.9961
vn -0.0871 0.9663 0.2421
vn -0.0885 0.9821 -0.1662
vn -0.1035 0.9648 0.2417
vn -0.1052 0.9805 -0.1659
vn -0.0898 -0.9960 -0.0000
vn -0.1067 -0.9943 -0.0000
vn -0.0000 0.0761 -0.9971
vn -0.0000 0.0846 -0.9964
vn -0.0000 0.0847 -0.9964
vn -0.0000 0.0849 -0.9964
vn -0.0000 0.1072 0.9942
vn -0.0000 0.1196 0.9928
vn -0.0000 0.1199 0.9928
vn 0.0948 -0.9955 -0.0000
vn 0.0616 -0.9981 -0.0000
vn 0.0923 0.9696 0.2264
vn 0.0933 0.9795 -0.1783
vn 0.0600 0.9720 0.2270
vn 0.0606 0.9820 -0.1787
vn -0.9958 0.0914 -0.0091
vn -0.9975 -0.0701 0.0058
vn -0.9986 0.0360 -0.0388
vn -0.9991 -0.0361 -0.0226
vn 0.9937 0.1117 -0.0112
vn 0.9979 0.0440 -0.0475
vn 0.9963 -0.0857 0.0071
vn 0.9986 -0.0442 -0.0277
vn -0.4186 0.0391 -0.9073
vn -0.0000 0.0430 -0.9991
vn -0.4019 0.1150 -0.9084
vn -0.0000 0.1256 -0.9921
vn -0.4909 -0.8688 0.0646
vn -0.0000 -0.9972 0.0741
vn -0.4834 0.1180 0.8674
vn -0.0000 0.1674 0.9859
vn -0.4012 0.5065 0.7632
vn -0.0000 0.5269 0.8499
vn -0.4041 0.6867 0.6043
vn -0.0000 0.7507 0.6607
vn -0.0000 0.2145 -0.9767
vn -0.4348 0.1931 -0.8796
vn -0.3977 0.8977 0.1896
vn -0.0000 0.9784 0.2067
vn 0.6667 0.0321 -0.7446
vn 0.6485 0.0956 -0.7552
vn 0.7380 -0.6729 0.0500
vn 0.7490 0.0515 0.6606
vn 0.6469 0.4525 0.6138
vn 0.6509 0.5699 0.5016
vn 0.6838 0.1565 -0.7127
vn 0.6437 0.7487 0.1581
vn 0.9992 -0.0391 -0.0079
vn -0.9755 0.2176 -0.0307
vn -0.0930 -0.2335 -0.9679
vn -0.1436 -0.9863 0.0813
vn 0.0030 0.0078 1.0000
vn 0.5730 0.8181 -0.0480
vn -0.9543 -0.2986 0.0118
vn 0.9815 0.1914 -0.0036
vn 0.0814 -0.2307 -0.9696
vn 0.1436 -0.9863 0.0813
vn -0.0027 0.0076 1.0000
vn -0.4886 0.8702 -0.0644
vn 0.9873 -0.1588 -0.0095
vn -0.9873 0.1588 0.0095
vn -0.0000 0.1565 -0.9877
vn -0.0000 -0.9982 -0.0595
vn -0.0000 -0.1565 0.9877
vn -0.0000 0.9982 0.0595
vn -0.9873 -0.1588 -0.0095
vn 0.9873 0.1588 0.0095
vn -0.9437 -0.3309 -0.0017
vn -0.9434 -0.3318 -0.0008
vn -0.9434 -0.3317 -0.0009
vn -0.0000 -1.0000 -0.0037
vn -0.0000 -1.0000 -0.0074
vn 0.9434 -0.3318 -0.0008
vn 0.9437 -0.3309 -0.0017
vn 0.9434 -0.3317 -0.0009
vn -0.9414 0.3345 0.0432
vn -0.0000 0.9835 0.1808
vn 0.9414 0.3345 0.0432
vn -0.8929 -0.0000 0.4502
vn 0.8929 -0.0000 0.4502
vn 0.9547 0.2975 -0.0000
vn -0.9547 0.2975 -0.0000
vn -0.9431 -0.3325 -0.0000
vn 0.9431 -0.3325 -0.0000
vn -0.9124 -0.0000 -0.4093
vn 0.9124 -0.0000 -0.4093
vn -0.0000 0.7682 -0.6403
vn -0.7665 0.6423 -0.0000
vn -0.0000 0.7682 0.6403
vn 0.7665 0.6423 -0.0000
vn 0.3274 0.9449 -0.0000
vn -0.0000 0.9732 0.2299
vn -0.3274 0.9449 -0.0000
vn -0.0000 0.9732 -0.2299
vn -0.9846 -0.0000 0.1748
vn 0.9846 -0.0000 -0.1748
vn 0.1748 -0.0000 0.9846
vn -0.1748 -0.0000 -0.9846
s 1
usemtl (null)
f 5//1 1//1 4//1 8//1
f 1//2 5//2 6//2 2//2
f 7//3 3//3 2//3 6//3
f 8//4 4//4 3//4 7//4
f 4//5 1//5 2//5 3//5
f 6//6 5//6 8//6 7//6
f 9//7 10//7 11//7 12//7
f 13//8 16//8 15//8 14//8
f 9//9 13//9 14//9 10//9
f 10//10 14//10 15//10 11//10
f 11//11 15//11 16//11 12//11
f 13//12 9//12 12//12 16//12
f 17//13 18//13 19//13 20//13
f 21//14 24//14 23//14 22//14
f 17//15 21//15 22//15 18//15
f 18//16 22//16 23//16 19//16
f 19//17 23//17 24//17 20//17
f 21//18 17//18 20//18 24//18
f 40//19 25//19 33//19 50//19
f 25//20 35//20 46//20 33//20
f 25//21 40//21 47//21 31//21
f 35//22 25//22 31//22 43//22
f 39//23 26//24 31//25 47//26
f 26//24 36//27 43//28 31//25
f 48//29 32//29 26//24 39//23
f 32//29 44//29 36//27 26//24
f 42//30 27//30 32//30 48//30
f 27//30 37//30 44//30 32//30
f 49//31 34//31 27//31 42//31
f 34//31 45//31 37//31 27//31
f 41//32 28//33 34//34 49//35
f 28//33 38//36 45//34 34//34
f 50//37 33//38 28//33 41//32
f 33//38 46//39 38//36 28//33
f 38//40 29//40 37//40 45//40
f 29//40 36//40 44//40 37//40
f 46//41 35//41 29//41 38//41
f 35//42 43//42 36//42 29//42
f 42//43 30//43 41//43 49//43
f 30//44 40//44 50//44 41//44
f 48//43 39//43 30//43 42//43
f 39//45 47//45 40//45 30//45
f 62//46 54//46 61//46 71//46
f 53//47 62//47 71//47 59//47
f 51//48 60//48 71//48 61//48
f 59//47 71//47 60//47 52//47
f 66//49 58//49 65//49 72//49
f 55//50 66//50 72//50 63//50
f 72//51 65//51 57//51 64//51
f 63//51 72//51 64//51 56//51
f 68//52 55//53 63//54 73//55
f 51//56 68//52 73//55 60//57
f 73//55 63//54 56//58 67//58
f 60//57 73//55 67//58 52//58
f 67//59 56//59 64//59 74//59
f 52//59 67//59 74//59 59//59
f 74//60 64//60 57//60 69//60
f 59//60 74//60 69//60 53//60
f 69//61 57//61 65//62 75//63
f 53//61 69//61 75//63 62//64
f 75//63 65//62 58//65 70//66
f 62//64 75//63 70//66 54//67
f 70//68 58//68 66//68 76//68
f 54//69 70//69 76//69 61//69
f 76//70 66//70 55//70 68//70
f 68//71 51//71 61//71 76//71
f 81//72 77//72 78//72 82//72
f 77//73 85//73 86//73 78//73
f 79//74 84//75 83//75 80//74
f 88//76 79//74 80//74 87//76
f 89//77 77//77 81//77 91//77
f 91//78 84//78 79//78 89//78
f 77//79 89//79 93//79 85//79
f 89//80 79//80 88//80 93//80
f 83//81 92//81 90//81 80//81
f 92//81 82//81 78//81 90//81
f 80//82 90//82 94//82 87//82
f 90//82 78//82 86//82 94//82
f 84//58 91//58 92//58 83//58
f 91//58 81//58 82//58 92//58
f 85//61 93//61 94//61 86//61
f 93//61 88//61 87//61 94//61
f 95//83 104//84 103//85 96//83
f 104//84 99//86 100//86 103//85
f 97//87 105//88 106//88 98//87
f 105//88 101//89 102//89 106//88
f 98//61 108//61 107//61 97//61
f 108//61 95//61 96//61 107//61
f 99//58 110//58 109//58 100//58
f 110//58 102//58 101//58 109//58
f 103//90 111//90 107//90 96//90
f 111//90 105//90 97//90 107//90
f 100//91 109//91 111//91 103//91
f 109//91 101//91 105//91 111//91
f 106//92 112//92 108//92 98//92
f 95//93 108//93 112//93 104//93
f 102//94 110//94 112//94 106//94
f 110//95 99//95 104//95 112//95
f 124//96 116//96 123//96 133//96
f 115//97 124//97 133//97 121//97
f 113//98 122//98 133//98 123//98
f 121//99 133//99 122//99 114//99
f 128//100 120//100 127//100 134//100
f 117//101 128//101 134//101 125//101
f 134//102 127//102 119//102 126//102
f 125//103 134//103 126//103 118//103
f 128//58 117//58 144//58 141//58
f 120//58 128//58 141//58 143//58
f 113//61 123//61 142//61 146//61
f 123//61 116//61 145//61 142//61
f 113//104 148//104 151//104 122//104
f 148//105 130//105 135//105 151//105
f 122//106 151//106 147//106 114//106
f 151//107 135//107 129//107 147//107
f 114//108 147//108 152//108 121//108
f 147//109 129//109 136//109 152//109
f 121//108 152//108 149//108 115//108
f 152//109 136//109 131//109 149//109
f 115//110 149//110 153//110 124//110
f 149//111 131//111 137//111 153//111
f 124//112 153//112 150//112 116//112
f 153//113 137//113 132//113 150//113
f 116//114 150//114 154//114 145//114
f 150//115 132//115 139//115 154//115
f 130//116 148//116 155//116 140//116
f 148//117 113//117 146//117 155//117
f 145//118 154//118 156//118 142//118
f 154//119 139//119 138//119 156//119
f 142//118 156//118 155//118 146//118
f 156//119 138//119 140//119 155//119
f 130//105 158//105 161//105 135//105
f 158//120 117//120 125//120 161//120
f 135//107 161//107 157//107 129//107
f 161//121 125//121 118//121 157//121
f 129//109 157//109 162//109 136//109
f 157//122 118//122 126//122 162//122
f 136//109 162//109 159//109 131//109
f 162//122 126//122 119//122 159//122
f 131//111 159//111 163//111 137//111
f 159//123 119//123 127//123 163//123
f 137//113 163//113 160//113 132//113
f 163//124 127//124 120//124 160//124
f 132//115 160//115 164//115 139//115
f 160//125 120//125 143//125 164//125
f 117//126 158//126 165//126 144//126
f 158//116 130//116 140//116 165//116
f 139//119 164//119 166//119 138//119
f 164//127 143//127 141//127 166//127
f 138//119 166//119 165//119 140//119
f 166//127 141//127 144//127 165//127
f 167//128 170//128 169//128 168//128
f 173//129 174//129 171//129 172//129
f 167//130 168//130 172//130 171//130
f 173//131 172//131 168//131 169//131
f 174//132 173//132 169//132 170//132
f 170//133 167//133 171//133 174//133
f 175//134 176//134 177//134 178//134
f 179//135 182//135 181//135 180//135
f 175//136 179//136 180//136 176//136
f 176//137 180//137 181//137 177//137
f 177//138 181//138 182//138 178//138
f 179//139 175//139 178//139 182//139
f 183//140 186//140 185//140 184//140
f 189//141 190//141 187//141 188//141
f 183//142 184//142 188//142 187//142
f 189//143 188//143 184//143 185//143
f 190//144 189//144 185//144 186//144
f 186//145 183//145 187//145 190//145
f 191//146 192//146 193//146 194//146
f 195//147 198//147 197//147 196//147
f 191//142 195//142 196//142 192//142
f 192//143 196//143 197//143 193//143
f 193//144 197//144 198//144 194//144
f 195//145 191//145 194//145 198//145
f 199//61 200//61 204//61 203//61
f 206//58 205//58 201//58 202//58
f 208//58 206//58 202//58 207//58
f 209//61 199//61 203//61 210//61
f 200//148 199//149 213//150 211//148
f 214//151 212//152 211//152 213//151
f 202//153 201//154 212//154 214//155
f 215//156 217//156 203//156 204//156
f 216//157 218//157 217//157 215//157
f 205//158 206//158 218//158 216//158
f 211//159 215//159 204//159 200//159
f 212//51 216//51 215//51 211//51
f 201//160 205//160 216//160 212//160
f 219//161 218//161 206//161 208//161
f 220//18 217//18 218//18 219//18
f 210//162 203//162 217//162 220//162
f 199//149 209//163 222//163 213//150
f 221//16 214//151 213//151 222//16
f 207//164 202//153 214//155 221//164
f 220//165 222//165 209//165 210//165
f 219//47 221//47 222//47 220//47
f 208//166 207//166 221//166 219//166
f 223//58 227//58 228//58 224//58
f 225//61 229//61 230//61 226//61
f 226//61 230//61 232//61 231//61
f 227//58 223//58 233//58 234//58
f 237//155 223//153 224//154 235//154
f 235//152 236//152 238//151 237//151
f 236//148 225//148 226//149 238//150
f 227//158 241//158 239//158 228//158
f 241//157 242//157 240//157 239//157
f 242//156 230//156 229//156 240//156
f 228//160 239//160 235//160 224//160
f 239//51 240//51 236//51 235//51
f 240//159 229//159 225//159 236//159
f 230//162 242//162 243//162 232//162
f 242//18 241//18 244//18 243//18
f 241//161 227//161 234//161 244//161
f 223//153 237//155 246//164 233//164
f 237//151 238//151 245//16 246//16
f 238//150 226//149 231//163 245//163
f 233//166 246//166 244//166 234//166
f 246//47 245//47 243//47 244//47
f 245//165 231//165 232//165 243//165
f 247//58 251//58 252//58 248//58
f 248//51 252//51 253//51 249//51
f 249//61 253//61 254//61 250//61
f 251//47 247//47 250//47 254//47
f 251//167 254//167 255//167 258//167
f 254//168 253//168 256//168 255//168
f 253//169 252//169 257//169 256//169
f 252//170 251//170 258//170 257//170
f 257//171 258//171 259//171 260//171
f 256//172 257//172 260//172 261//172
f 255//173 256//173 261//173 262//173
f 258//174 255//174 262//174 259//174
f 259//18 262//18 261//18 260//18
f 267//18 263//18 266//18 270//18
f 263//175 267//175 268//175 264//175
f 269//16 265//16 264//16 268//16
f 270//176 266//176 265//176 269//176
f 266//177 263//177 264//177 265//177
f 268//178 267//178 270//178 269//178
f 248//16 249//16 250//16 247//16
